<?xml version="1.0" standalone="no"?>
<!DOCTYPE svg PUBLIC "-//W3C//DTD SVG 20010904//EN"
 "http://www.w3.org/TR/2001/REC-SVG-20010904/DTD/svg10.dtd">
<svg version="1.0" xmlns="http://www.w3.org/2000/svg"
 width="700.000000pt" height="700.000000pt" viewBox="0 0 700.000000 700.000000"
 preserveAspectRatio="xMidYMid meet">
<metadata>
Created by potrace 1.11, written by Peter Selinger 2001-2013
</metadata>
<g transform="translate(0.000000,700.000000) scale(0.100000,-0.100000)"
fill="#000000" stroke="none">
<path d="M2275 6986 c-110 -35 -190 -105 -239 -206 l-31 -65 -3 -355 c-2 -195
-4 -356 -6 -357 -1 -2 -325 -3 -720 -3 -796 -1 -802 -1 -928 -65 -155 -79
-270 -215 -325 -385 -16 -51 -18 -120 -21 -865 l-3 -810 3498 0 3498 0 3 775
c1 519 -1 793 -9 830 -5 30 -12 65 -15 77 -9 46 -66 151 -113 209 -90 111
-223 194 -354 219 -57 11 -220 14 -786 15 -393 0 -716 1 -717 3 -2 1 -4 162
-6 357 l-3 355 -31 65 c-39 83 -101 145 -184 184 l-65 31 -1200 2 c-948 1
-1208 -1 -1240 -11z m2225 -736 l0 -250 -1000 0 -1000 0 0 250 0 250 1000 0
1000 0 0 -250z"/>
<path d="M0 2533 c1 -580 5 -990 11 -1023 21 -121 83 -236 177 -328 74 -74
147 -118 250 -152 l87 -29 2955 0 c1625 0 2975 4 3000 9 82 15 94 19 175 59
172 85 299 255 334 445 7 40 11 374 11 1023 l0 963 -1312 0 -1313 0 -1 -338
c0 -316 -2 -340 -21 -382 -25 -57 -75 -108 -133 -134 -44 -20 -62 -20 -720
-20 -658 0 -676 0 -720 20 -58 26 -108 76 -134 134 -19 42 -20 66 -20 382 l-1
338 -1313 0 -1312 0 0 -967z"/>
<path d="M3000 3250 l0 -250 500 0 500 0 0 250 0 250 -500 0 -500 0 0 -250z"/>
</g>
</svg>
