<?xml version="1.0" standalone="no"?>
<!DOCTYPE svg PUBLIC "-//W3C//DTD SVG 20010904//EN"
 "http://www.w3.org/TR/2001/REC-SVG-20010904/DTD/svg10.dtd">
<svg version="1.0" xmlns="http://www.w3.org/2000/svg"
 width="700.000000pt" height="700.000000pt" viewBox="0 0 700.000000 700.000000"
 preserveAspectRatio="xMidYMid meet">
<metadata>
Created by potrace 1.11, written by Peter Selinger 2001-2013
</metadata>
<g transform="translate(0.000000,700.000000) scale(0.100000,-0.100000)"
fill="#000000" stroke="none">
<path d="M2086 6606 c-1302 -280 -1360 -294 -1382 -320 -40 -45 -26 -125 25
-150 15 -7 97 -33 183 -57 l158 -44 0 -602 c0 -332 -4 -603 -8 -603 -15 0 -50
-74 -63 -135 -19 -82 -19 -592 -1 -730 40 -302 110 -477 182 -458 64 17 129
225 161 513 17 157 17 544 0 640 -15 83 -40 148 -65 169 -14 12 -16 66 -16
562 l0 548 46 7 c39 6 76 -2 221 -42 l175 -49 -6 -30 c-3 -16 -12 -61 -20
-100 -23 -104 -31 -288 -16 -360 13 -64 38 -122 75 -170 22 -30 22 -32 8 -95
-8 -37 -17 -143 -20 -245 -10 -342 51 -628 155 -732 63 -63 97 -37 130 99 78
321 252 525 464 544 l63 6 79 -63 c193 -152 359 -248 469 -271 53 -11 62 -11
95 7 44 24 67 79 58 138 -4 20 -3 37 0 37 3 0 50 -42 104 -93 107 -102 222
-193 285 -226 48 -25 100 -28 109 -5 17 44 -10 157 -68 288 l-17 38 28 -19
c167 -114 502 -104 889 26 51 17 101 31 111 31 30 0 96 -49 142 -105 57 -69
112 -179 166 -331 49 -139 74 -177 114 -172 35 4 82 70 108 149 69 209 95 641
52 854 l-21 104 25 33 c71 94 92 185 83 348 -4 63 -13 147 -22 185 -8 39 -17
84 -20 100 l-6 30 474 134 c260 74 484 140 499 147 54 27 66 109 22 153 -26
25 -111 44 -1393 319 -757 162 -1385 292 -1410 291 -25 0 -657 -132 -1404
-293z"/>
<path d="M2629 4257 c-28 -15 -54 -40 -73 -71 -26 -42 -30 -58 -34 -150 -9
-199 17 -274 112 -321 105 -53 219 -14 267 90 15 33 19 65 19 180 0 115 -4
147 -19 180 -48 103 -171 145 -272 92z"/>
<path d="M4195 4261 c-93 -43 -115 -95 -115 -278 0 -113 4 -145 19 -178 48
-104 162 -143 267 -90 95 47 121 122 112 321 -4 92 -8 108 -34 150 -53 86
-158 117 -249 75z"/>
<path d="M3323 3451 c-74 -19 -117 -73 -115 -147 0 -54 23 -97 65 -123 32 -19
49 -21 227 -21 178 0 195 2 227 21 91 56 87 198 -7 254 -31 18 -54 20 -200 22
-91 1 -180 -2 -197 -6z"/>
<path d="M2814 2746 c-66 -30 -93 -86 -74 -157 35 -129 347 -219 760 -219 276
0 491 36 637 106 80 38 119 78 129 130 14 75 -49 154 -122 154 -18 0 -67 -17
-111 -40 -130 -66 -351 -97 -618 -86 -218 8 -379 41 -472 96 -45 27 -92 32
-129 16z"/>
<path d="M2650 1978 c0 -26 11 -43 58 -88 208 -202 490 -292 867 -276 305 12
512 90 694 262 65 61 81 82 81 105 0 16 -2 29 -4 29 -2 0 -28 -16 -57 -36 -83
-56 -263 -139 -374 -173 -276 -84 -568 -83 -845 4 -99 31 -282 117 -359 169
-29 20 -55 36 -57 36 -2 0 -4 -14 -4 -32z"/>
<path d="M1800 1549 c-266 -34 -510 -157 -695 -351 -95 -99 -159 -192 -221
-322 -85 -180 -114 -354 -114 -698 l0 -178 2730 0 2730 0 0 178 c-1 419 -46
617 -198 852 -75 116 -241 278 -356 349 -147 91 -312 149 -486 171 -41 5 -249
10 -461 10 l-386 0 -6 -39 c-6 -49 -37 -91 -102 -139 -188 -141 -463 -225
-735 -225 -272 0 -547 84 -735 225 -65 48 -96 90 -102 139 l-6 39 -396 -1
c-218 -1 -425 -5 -461 -10z"/>
</g>
</svg>
